<svg id="图层_1" data-name="AGV充电桩" width="24.6" height="55" viewBox="0 0 72.43 169.4" xmlns="http://www.w3.org/2000/svg"><defs><style>.cls-1,.cls-5,.cls-6,.cls-7{fill:none;}.cls-1,.cls-3,.cls-5,.cls-6,.cls-7{stroke:#231815;stroke-miterlimit:10;}.cls-1{stroke-dasharray:10;}.cls-2{fill:#898989;stroke:#040000;stroke-linecap:round;stroke-linejoin:round;}.cls-3{fill:#e9e434;stroke-width:0.5px;}.cls-4{fill:#231815;}.cls-6{stroke-dasharray:9.73 9.73;}.cls-7{stroke-dasharray:8.78 8.78;}</style></defs><title>AGV充电桩</title><rect class="cls-1" x="0.5" y="13" width="71.43" height="155.91"/><rect class="cls-2" x="19.29" y="0.5" width="33.61" height="12.5"/><polygon class="cls-3" points="28.07 2.74 24.13 7.34 27.28 7.34 25.99 10.83 31 5.71 27.36 5.71 28.07 2.74"/><path class="cls-4" d="M486.94,545.7h.89L490,552h-.84l-.61-1.93h-2.31L485.6,552h-.81Zm-.52,3.77h1.91l-.3-1c-.23-.72-.43-1.41-.64-2.14h0c-.2.74-.41,1.42-.63,2.14Z" transform="translate(-451.1 -541.25)"/><path class="cls-4" d="M490.42,548.88c0-2,1.23-3.29,2.9-3.29a2.42,2.42,0,0,1,1.83.78l-.43.52a1.77,1.77,0,0,0-1.38-.6c-1.27,0-2.1,1-2.1,2.56s.75,2.6,2.12,2.6a1.7,1.7,0,0,0,1.14-.37v-1.66h-1.34v-.66h2.07v2.66a2.71,2.71,0,0,1-2,.73C491.61,552.15,490.42,550.94,490.42,548.88Z" transform="translate(-451.1 -541.25)"/><path class="cls-4" d="M495.76,545.7h.83l1,3.44c.23.74.37,1.35.62,2.09h0c.23-.74.39-1.35.61-2.09l1-3.44h.82l-2,6.34h-.92Z" transform="translate(-451.1 -541.25)"/><line class="cls-5" x1="36.22" y1="13" x2="36.22" y2="18"/><line class="cls-6" x1="36.22" y1="27.73" x2="36.22" y2="159.04"/><line class="cls-5" x1="36.22" y1="163.9" x2="36.22" y2="168.9"/><line class="cls-5" x1="71.81" y1="90.95" x2="66.81" y2="90.95"/><line class="cls-7" x1="58.03" y1="90.95" x2="9.76" y2="90.95"/><line class="cls-5" x1="5.38" y1="90.95" x2="0.38" y2="90.95"/></svg>