<svg id="图层_1" data-name="AGV" width="17.83" height="42" viewBox="0 0 57.52 122.15" xmlns="http://www.w3.org/2000/svg"><defs><style>.cls-1{fill:#898989;}.cls-1,.cls-2,.cls-3{stroke:#040000;stroke-linecap:round;stroke-linejoin:round;}.cls-2{fill:none;}.cls-3{fill:#d3d3d3;}</style></defs><title>AGV</title><polygon class="cls-1" points="1.95 118.07 4.21 120.34 17.54 120.34 19.8 118.07 37.72 118.07 39.98 120.34 53.32 120.34 55.58 118.07 55.58 4.08 53.32 1.81 4.21 1.81 1.95 4.08 1.95 118.07"/><path class="cls-1" d="M321.48,459.76V455.1h-1.13c0,1.55,0,3.1,0,4.65a4.52,4.52,0,0,0,4.51,4.53h4.64v-1.13h-4.64a3.35,3.35,0,0,1-2.39-1A3.39,3.39,0,0,1,321.48,459.76Z" transform="translate(-319.85 -342.64)"/><path class="cls-1" d="M375.74,459.76V455.1h1.13v4.65a4.52,4.52,0,0,1-4.52,4.53h-4.63v-1.13h4.63a3.4,3.4,0,0,0,3.39-3.4Z" transform="translate(-319.85 -342.64)"/><path class="cls-1" d="M321.48,347.67v4.65h-1.13c0-1.55,0-3.1,0-4.65a4.54,4.54,0,0,1,1.32-3.21,4.49,4.49,0,0,1,3.19-1.32h4.64v1.13h-4.64a3.41,3.41,0,0,0-3.39,3.4Z" transform="translate(-319.85 -342.64)"/><path class="cls-1" d="M375.74,347.67v4.65h1.13v-4.65a4.58,4.58,0,0,0-1.32-3.21,4.52,4.52,0,0,0-3.2-1.32h-4.63v1.13h4.63a3.4,3.4,0,0,1,3.39,3.4Z" transform="translate(-319.85 -342.64)"/><polygon class="cls-2" points="3.36 117.48 4.79 118.92 16.96 118.92 19.21 116.65 38.31 116.65 40.57 118.92 52.73 118.92 54.16 117.48 54.16 4.67 52.73 3.23 4.79 3.23 3.36 4.67 3.36 117.48"/><rect class="cls-3" x="22.38" y="20.43" width="13.15" height="80.96"/><path class="cls-2" d="M348.63,402.78a3.74,3.74,0,0,0-.67.1,3.32,3.32,0,0,0-.67.23,3.49,3.49,0,0,0-1.21.88,3.71,3.71,0,0,0-.75,1.29,3.87,3.87,0,0,0-.17.69,3.5,3.5,0,0,0,.07,1.34,3.41,3.41,0,0,0,.23.68,3.64,3.64,0,0,0,2.15,2,3.38,3.38,0,0,0,.7.16,3.71,3.71,0,0,0,1.33-.06,3.41,3.41,0,0,0,.68-.23,3.84,3.84,0,0,0,1.2-.88,3.58,3.58,0,0,0,.76-1.29,3.29,3.29,0,0,0,.16-.69,3.87,3.87,0,0,0,0-.68,3.62,3.62,0,0,0-.09-.66,3.89,3.89,0,0,0-.23-.68,3.63,3.63,0,0,0-.88-1.21A3.54,3.54,0,0,0,350,403a4.09,4.09,0,0,0-.69-.17A3.76,3.76,0,0,0,348.63,402.78Z" transform="translate(-319.85 -342.64)"/><rect class="cls-2" x="22.38" y="57.38" width="13.15" height="12.9"/><line class="cls-2" x1="1.95" y1="101.39" x2="55.58" y2="101.39"/><line class="cls-2" x1="1.95" y1="20.43" x2="55.58" y2="20.43"/><rect class="cls-3" x="35.52" y="20.43" width="18.64" height="80.96"/><rect class="cls-3" x="3.36" y="20.43" width="19.02" height="80.96"/></svg>