<svg xmlns="http://www.w3.org/2000/svg" xmlns:xlink="http://www.w3.org/1999/xlink" width="24.6" height="55" viewBox="0 0 24.6 55" fill="none"><defs><rect id="path_0" x="0" y="0" width="24.6" height="55" /></defs><g opacity="1" transform="translate(0 0)  rotate(0 12.3 27.5)"><mask id="bg-mask-0" fill="white"><use xlink:href="#path_0"></use></mask><g mask="url(#bg-mask-0)" ><path id="载车板架外框" fill-rule="evenodd" style="fill:#898989" transform="translate(0 0)  rotate(0 12.3 27.5)" opacity="1" d="M0,55L24.6,55L24.6,0L0,0L0,55Z " /><path  id="载车板架外框" style="stroke:#040000; stroke-width:0.1; stroke-opacity:1; stroke-dasharray:0 0" transform="translate(0 0)  rotate(0 12.3 27.5)" d="M0,55L24.6,55L24.6,0L0,0L0,55Z " /><path id="载车板外框" fill-rule="evenodd" style="fill:#898989" transform="translate(2 2)  rotate(0 10 25.500000000000007)" opacity="1" d="M0,51L20,51L20,0L0,0L0,51Z " /><path  id="载车板外框" style="stroke:#040000; stroke-width:0.1; stroke-opacity:1; stroke-dasharray:0 0" transform="translate(2 2)  rotate(0 10 25.500000000000007)" d="M0,51L20,51L20,0L0,0L0,51Z " /><path id="载车板左上角红块" fill-rule="evenodd" style="fill:#E71F19" transform="translate(3 3)  rotate(0 2.169904092935288 2.4758343328864743)" opacity="1" d="M0,4.95L4.34,4.95L4.34,0L0,0L0,4.95Z " /><path  id="载车板左上角红块" style="stroke:#040000; stroke-width:0.1; stroke-opacity:1; stroke-dasharray:0 0" transform="translate(3 3)  rotate(0 2.169904092935288 2.4758343328864743)" d="M0,4.95L4.34,4.95L4.34,0L0,0L0,4.95Z " /><path id="载车板右下角红块" fill-rule="evenodd" style="fill:#E71F19" transform="translate(17 47)  rotate(0 2.169904092935288 2.4758343328864743)" opacity="1" d="M0,4.95L4.34,4.95L4.34,0L0,0L0,4.95Z " /><path  id="载车板右下角红块" style="stroke:#040000; stroke-width:0.1; stroke-opacity:1; stroke-dasharray:0 0" transform="translate(17 47)  rotate(0 2.169904092935288 2.4758343328864743)" d="M0,4.95L4.34,4.95L4.34,0L0,0L0,4.95Z " /><path id="载车板左下支脚连接处" fill-rule="evenodd" style="fill:#898989" transform="translate(1.9 44)  rotate(0 0.04777117384843963 1)" opacity="1" d="M0,2L0.1,2L0.1,0L0,0L0,2Z " /><path  id="载车板左下支脚连接处" style="stroke:#040000; stroke-width:0.1; stroke-opacity:1; stroke-dasharray:0 0" transform="translate(1.9 44)  rotate(0 0.04777117384843963 1)" d="M0,2L0.1,2L0.1,0L0,0L0,2Z " /><path id="载车板左下支脚" fill-rule="evenodd" style="fill:#898989" transform="translate(0.62 44.36)  rotate(0 0.64 0.64)" opacity="1" d="M0,1.28L1.28,1.28L1.28,0L0,0L0,1.28Z " /><path  id="载车板左下支脚" style="stroke:#040000; stroke-width:0.1; stroke-opacity:1; stroke-dasharray:0 0" transform="translate(0.62 44.36)  rotate(0 0.64 0.64)" d="M0,1.28L1.28,1.28L1.28,0L0,0L0,1.28Z " /><path id="载车板右下支脚" fill-rule="evenodd" style="fill:#898989" transform="translate(22 44.36)  rotate(180 0.64 0.64)" opacity="1" d="M0,1.28L1.28,1.28L1.28,0L0,0L0,1.28Z " /><path  id="载车板右下支脚" style="stroke:#040000; stroke-width:0.1; stroke-opacity:1; stroke-dasharray:0 0" transform="translate(22 44.36)  rotate(180 0.64 0.64)" d="M0,1.28L1.28,1.28L1.28,0L0,0L0,1.28Z " /><path id="载车板右下支脚连接处" fill-rule="evenodd" style="fill:#898989" transform="translate(22.01 44)  rotate(180 0.046521680399837735 0.9999999999999999)" opacity="1" d="M0,2L0.09,2L0.09,0L0,0L0,2Z " /><path  id="载车板右下支脚连接处" style="stroke:#040000; stroke-width:0.1; stroke-opacity:1; stroke-dasharray:0 0" transform="translate(22.01 44)  rotate(180 0.046521680399837735 0.9999999999999999)" d="M0,2L0.09,2L0.09,0L0,0L0,2Z " /><path id="载车板右上支脚" fill-rule="evenodd" style="fill:#898989" transform="translate(22 9.28)  rotate(180 0.64 0.64)" opacity="1" d="M0,1.28L1.28,1.28L1.28,0L0,0L0,1.28Z " /><path  id="载车板右上支脚" style="stroke:#040000; stroke-width:0.1; stroke-opacity:1; stroke-dasharray:0 0" transform="translate(22 9.28)  rotate(180 0.64 0.64)" d="M0,1.28L1.28,1.28L1.28,0L0,0L0,1.28Z " /><path id="载车板右上支脚连接处" fill-rule="evenodd" style="fill:#898989" transform="translate(22 8.963758554998941)  rotate(180 0.047771173848439714 1)" opacity="1" d="M0,2L0.1,2L0.1,0L0,0L0,2Z " /><path  id="载车板右上支脚连接处" style="stroke:#040000; stroke-width:0.1; stroke-opacity:1; stroke-dasharray:0 0" transform="translate(22 8.963758554998941)  rotate(180 0.047771173848439714 1)" d="M0,2L0.1,2L0.1,0L0,0L0,2Z " /><path id="载车板左上支脚连接处" fill-rule="evenodd" style="fill:#898989" transform="translate(1.9 9)  rotate(0 0.005 1)" opacity="1" d="M0,2L0.01,2L0.01,0L0,0L0,2Z " /><path  id="载车板左上支脚连接处" style="stroke:#040000; stroke-width:0.1; stroke-opacity:1; stroke-dasharray:0 0" transform="translate(1.9 9)  rotate(0 0.005 1)" d="M0,2L0.01,2L0.01,0L0,0L0,2Z " /><path id="载车板左上支脚" fill-rule="evenodd" style="fill:#898989" transform="translate(0.62 9.36)  rotate(0 0.64 0.64)" opacity="1" d="M0,1.28L1.28,1.28L1.28,0L0,0L0,1.28Z " /><path  id="载车板左上支脚" style="stroke:#040000; stroke-width:0.1; stroke-opacity:1; stroke-dasharray:0 0" transform="translate(0.62 9.36)  rotate(0 0.64 0.64)" d="M0,1.28L1.28,1.28L1.28,0L0,0L0,1.28Z " /><path id="载车板中间框" fill-rule="evenodd" style="fill:#898989" transform="translate(8 2)  rotate(0 3.972619208429 25.5)" opacity="1" d="M0,51L7.95,51L7.95,0L0,0L0,51Z " /><path  id="载车板中间框" style="stroke:#040000; stroke-width:0.1; stroke-opacity:1; stroke-dasharray:0 0" transform="translate(8 2)  rotate(0 3.972619208429 25.5)" d="M0,51L7.95,51L7.95,0L0,0L0,51Z " /></g></g></svg>