<svg id="图层_1" data-name="双层充电" width="24.6" height="55" viewBox="0 0 72.43 156.91" xmlns="http://www.w3.org/2000/svg"><defs><style>.cls-1{fill:#e9e434;}.cls-1,.cls-4,.cls-5,.cls-6,.cls-7{stroke:#231815;}.cls-1,.cls-2,.cls-3,.cls-4,.cls-5,.cls-6,.cls-7{stroke-miterlimit:10;}.cls-2{fill:#040000;}.cls-2,.cls-3{stroke:#060404;}.cls-3{fill:#231815;}.cls-4,.cls-5,.cls-6,.cls-7{fill:none;}.cls-4{stroke-dasharray:10;}.cls-6{stroke-dasharray:9.73 9.73;}.cls-7{stroke-dasharray:8.78 8.78;}</style></defs><title>双层对准机构</title><path class="cls-1" d="M511.17,780.35V786H509a.85.85,0,0,0-.85.86v7.42a.86.86,0,0,0,.85.86h2.15v5.67a.86.86,0,0,0,.85.86h7.74a.86.86,0,0,0,.86-.86V780.35a.86.86,0,0,0-.86-.86H512A.86.86,0,0,0,511.17,780.35Z" transform="translate(-451.1 -727.75)"/><circle class="cls-2" cx="66.21" cy="67.78" r="1.9"/><circle class="cls-3" cx="66.21" cy="62.84" r="1.9"/><rect class="cls-4" x="0.5" y="0.5" width="71.43" height="155.91"/><line class="cls-5" x1="36.22" y1="0.5" x2="36.22" y2="5.5"/><line class="cls-6" x1="36.22" y1="15.23" x2="36.22" y2="146.54"/><line class="cls-5" x1="36.22" y1="151.41" x2="36.22" y2="156.41"/><line class="cls-5" x1="71.81" y1="78.45" x2="66.81" y2="78.45"/><line class="cls-7" x1="58.03" y1="78.45" x2="9.76" y2="78.45"/><line class="cls-5" x1="5.38" y1="78.45" x2="0.38" y2="78.45"/></svg>