<svg xmlns="http://www.w3.org/2000/svg" xmlns:xlink="http://www.w3.org/1999/xlink" width="25.199999999999996" height="55" viewBox="0 0 25.199999999999996 55" fill="none"><defs><rect id="path_0" x="0" y="0" width="25.199999999999996" height="55" /></defs><g opacity="1" transform="translate(0 0)  rotate(0 12.599999999999998 27.5)"><mask id="bg-mask-0" fill="white"><use xlink:href="#path_0"></use></mask><g mask="url(#bg-mask-0)" ><path id="车位外框" fill-rule="evenodd" style="fill:#EC6619" transform="translate(0 0)  rotate(0 12.599999999999998 27.5)" opacity="1" d="M25.2025 0L0.162528 0L0.162528 55L25.2025 55L25.2025 0Z M1.03653e-09 0L25.04 55 " /><path  id="车位外框" style="stroke:#231815; stroke-width:0.5; stroke-opacity:1; stroke-dasharray:0 0" transform="translate(0 0)  rotate(0 12.599999999999998 27.5)" d="M25.2025 0L0.162528 0L0.162528 55L25.2025 55L25.2025 0Z M1.03653e-09 0L25.04 55 " /><path id="向右的箭头" fill-rule="evenodd" style="fill:#231815" transform="translate(17.611156321424655 26.619844782246165)  rotate(0 0.7572641471659319 0.8801552177538339)" opacity="1" d="M1.51 0.88L0 1.76L0 0L1.51 0.88Z" /><path id="1层" fill-rule="evenodd" style="fill:#231815" transform="translate(16.94855019265446 4.374318517093194)  rotate(0 2.6066013584160657 4.64771342441152)" opacity="1" d="M0.42,0.68L0.42,1.45L2.1,1.45L2.1,8.3L0,8.3L0,9.3L5.21,9.3L5.21,8.3L3.32,8.3L3.32,0L2.41,0C1.8,0.35 1.12,0.58 0.42,0.68Z " /><path id="2层" fill-rule="evenodd" style="fill:#231815" transform="translate(4.383574713753078 40.40247578731319)  rotate(0 3.015033178531025 4.73061381566288)" opacity="1" d="M0,1.41L0.7,2.07C1.22,1.46 1.89,0.97 2.67,0.97C3.86,0.97 4.42,1.72 4.42,2.78C4.42,4.32 2.86,5.99 0.07,8.78L0.07,9.46L6.03,9.46L6.03,8.43L3.35,8.43C2.85,8.43 2.29,8.48 1.79,8.52C3.99,6.2 5.56,4.49 5.56,2.72C5.56,1.08 4.5,0 2.8,0C1.6,0 0.78,0.56 0,1.41Z " /><path  id="横线" style="stroke:#231815; stroke-width:0.5; stroke-opacity:1; stroke-dasharray:0 0" transform="translate(7.500277615746197 27.49823616188827)  rotate(0 5.183402970300139 0.005)" d="M10.37,0Z M0,0L10.37,0 " /><path id="向左的箭头" fill-rule="evenodd" style="fill:#231815" transform="translate(6.241676556336153 26.619844782246165)  rotate(0 0.7572641471659319 0.8801552177538339)" opacity="1" d="M0 0.88L1.51 0L1.51 1.76L0 0.88Z" /></g></g></svg>