<svg xmlns="http://www.w3.org/2000/svg" xmlns:xlink="http://www.w3.org/1999/xlink" width="24.6" height="55" viewBox="0 0 24.6 55" fill="none"><defs><rect id="path_0" x="0" y="0" width="24.6" height="55" /></defs><g opacity="1" transform="translate(0 0)  rotate(0 12.3 27.5)"><mask id="bg-mask-0" fill="white"><use xlink:href="#path_0"></use></mask><g mask="url(#bg-mask-0)" ><path id="分组 1" fill-rule="evenodd" style="fill:#EC6619" transform="translate(0.17 0.18)  rotate(0 12.125 27.325)" opacity="1" d="M24.25 0L1.97684e-14 0L1.97684e-14 54.65L24.25 54.65L24.25 0Z M0 4.98155e-15L24.25 54.65 " /><path  id="分组 1" style="stroke:#000000; stroke-width:0.1; stroke-opacity:1; stroke-dasharray:0 0" transform="translate(0.17 0.18)  rotate(0 12.125 27.325)" d="M24.25 0L1.97684e-14 0L1.97684e-14 54.65L24.25 54.65L24.25 0Z M0 4.98155e-15L24.25 54.65 " /><path id="路径 3" fill-rule="evenodd" style="fill:#231815" transform="translate(16.527527216174196 4.69987275554928)  rotate(0 2.577209105047362 4.58924077477732)" opacity="1" d="M3.27,8.18L3.27,0L2.37,0C1.77,0.35 1.1,0.57 0.41,0.67L0.41,1.43L2.09,1.43L2.09,8.18L0,8.18L0,9.18L5.15,9.18L5.15,8.18L3.27,8.18Z " /><path id="路径 4" fill-rule="evenodd" style="fill:#231815" transform="translate(4.069277534285306 40.22431782836137)  rotate(0 2.9910928884490295 4.664018096988556)" opacity="1" d="M5.52,2.69C5.52,1.06 4.47,0 2.78,0C1.58,0 0.77,0.55 0,1.39L0.7,2.05C1.21,1.44 1.88,0.95 2.65,0.95C3.82,0.95 4.39,1.69 4.39,2.74C4.39,4.26 2.83,5.9 0.07,8.65L0.07,9.33L5.98,9.33L5.98,8.31L3.32,8.31C2.82,8.31 2.27,8.36 1.78,8.4C3.95,6.11 5.52,4.41 5.52,2.69Z " /></g></g></svg>