<svg data-name="停取交接区" xmlns="http://www.w3.org/2000/svg" xmlns:xlink="http://www.w3.org/1999/xlink" width="37" height="65" viewBox="0 0 37 65" fill="none"><rect x="0" y="0" width="0" height="0" fill="rgba(249, 249, 249, 1)" /><defs><rect id="path_0" x="0" y="0" width="37" height="65" /></defs><g opacity="1" transform="translate(0 0)  rotate(0 18.5 32.5)"><mask id="bg-mask-0" fill="white"><use xlink:href="#path_0"></use></mask><g mask="url(#bg-mask-0)" ><path id="交接区外框" fill-rule="evenodd" style="fill:#4CB234" transform="translate(0 0)  rotate(0 18.5 32.5)" opacity="1" d="M0,65L37,65L37,0L0,0L0,65Z " /><path  id="交接区外框" style="stroke:#231815; stroke-width:0.1; stroke-opacity:1; stroke-dasharray:0 0" transform="translate(0 0)  rotate(0 18.5 32.5)" d="M0,65L37,65L37,0L0,0L0,65Z " /><path id="载车板" fill-rule="evenodd" style="fill:#FFFFFF" transform="translate(8.999999999999998 11.000000000000004)  rotate(0 9.999999999999998 22.500407055630937)" opacity="1" d="M0,45L20,45L20,0L0,0L0,45Z " /><path  id="载车板" style="stroke:#040000; stroke-width:0.1; stroke-opacity:1; stroke-dasharray:0 0" transform="translate(8.999999999999998 11.000000000000004)  rotate(0 9.999999999999998 22.500407055630937)" d="M0,45L20,45L20,0L0,0L0,45Z " /><path id="上方正方形" fill-rule="evenodd" style="fill:#FFFFFF" transform="translate(9.999999999999998 12.580000000000004)  rotate(0 1.9999999999999996 2)" opacity="1" d="M0,4L4,4L4,0L0,0L0,4Z " /><path  id="上方正方形" style="stroke:#040000; stroke-width:0.1; stroke-opacity:1; stroke-dasharray:0 0" transform="translate(9.999999999999998 12.580000000000004)  rotate(0 1.9999999999999996 2)" d="M0,4L4,4L4,0L0,0L0,4Z " /><path id="下方正方形" fill-rule="evenodd" style="fill:#FFFFFF" transform="translate(23.959999999999997 49.580000000000005)  rotate(0 1.9999999999999996 2)" opacity="1" d="M0,4L4,4L4,0L0,0L0,4Z " /><path  id="下方正方形" style="stroke:#040000; stroke-width:0.1; stroke-opacity:1; stroke-dasharray:0 0" transform="translate(23.959999999999997 49.580000000000005)  rotate(0 1.9999999999999996 2)" d="M0,4L4,4L4,0L0,0L0,4Z " /><path id="左上支脚" fill-rule="evenodd" style="fill:#FFFFFF" transform="translate(6.65 16.000000000000007)  rotate(0 1.1763383014375164 0.5785617367706921)" opacity="1" d="M0,1.16L2.35,1.16L2.35,0L0,0L0,1.16Z " /><path  id="左上支脚" style="stroke:#040000; stroke-width:0.1; stroke-opacity:1; stroke-dasharray:0 0" transform="translate(6.65 16.000000000000007)  rotate(0 1.1763383014375164 0.5785617367706921)" d="M0,1.16L2.35,1.16L2.35,0L0,0L0,1.16Z " /><path id="右上支脚" fill-rule="evenodd" style="fill:#FFFFFF" transform="translate(29 16.000000000000007)  rotate(180 1.1763383014375164 0.5785617367706921)" opacity="1" d="M0,1.16L2.35,1.16L2.35,0L0,0L0,1.16Z " /><path  id="右上支脚" style="stroke:#040000; stroke-width:0.1; stroke-opacity:1; stroke-dasharray:0 0" transform="translate(29 16.000000000000007)  rotate(180 1.1763383014375164 0.5785617367706921)" d="M0,1.16L2.35,1.16L2.35,0L0,0L0,1.16Z " /><path id="左下支脚" fill-rule="evenodd" style="fill:#FFFFFF" transform="translate(6.65 49.000000000000014)  rotate(0 1.1763383014375164 0.5785617367706921)" opacity="1" d="M0,1.16L2.35,1.16L2.35,0L0,0L0,1.16Z " /><path  id="左下支脚" style="stroke:#040000; stroke-width:0.1; stroke-opacity:1; stroke-dasharray:0 0" transform="translate(6.65 49.000000000000014)  rotate(0 1.1763383014375164 0.5785617367706921)" d="M0,1.16L2.35,1.16L2.35,0L0,0L0,1.16Z " /><path id="右下支脚" fill-rule="evenodd" style="fill:#FFFFFF" transform="translate(29 49.000000000000014)  rotate(180 1.1763383014375164 0.5785617367706921)" opacity="1" d="M0,1.16L2.35,1.16L2.35,0L0,0L0,1.16Z " /><path  id="右下支脚" style="stroke:#040000; stroke-width:0.1; stroke-opacity:1; stroke-dasharray:0 0" transform="translate(29 49.000000000000014)  rotate(180 1.1763383014375164 0.5785617367706921)" d="M0,1.16L2.35,1.16L2.35,0L0,0L0,1.16Z " /><path id="载车板中间矩形" fill-rule="evenodd" style="fill:#FFFFFF" transform="translate(14.999999999999996 11.000000000000004)  rotate(0 3.9010053796631095 22.491587516960657)" opacity="1" d="M0,44.98L7.8,44.98L7.8,0L0,0L0,44.98Z " /><path  id="载车板中间矩形" style="stroke:#040000; stroke-width:0.1; stroke-opacity:1; stroke-dasharray:0 0" transform="translate(14.999999999999996 11.000000000000004)  rotate(0 3.9010053796631095 22.491587516960657)" d="M0,44.98L7.8,44.98L7.8,0L0,0L0,44.98Z " /><path id="三角形 1" fill-rule="evenodd" style="fill:#4CB234" transform="translate(16 23)  rotate(0 3 2)" opacity="1" d="M0.4,3L5.6,3L3,0L0.4,3Z " /><path id="矩形 1" fill-rule="evenodd" style="fill:#4CB234" transform="translate(18 26)  rotate(0 1 6)" opacity="1" d="M0,12L2,12L2,0L0,0L0,12Z " /><g opacity="1" transform="translate(8.549254784372536 2.014382632293068)  rotate(0 3.103183702266512 3.437227665500258)"><path id="路径 14" fill-rule="evenodd" style="fill:#231815" transform="translate(0 3.111558308933816)  rotate(0 3.103183702266512 1.8814485110333492)" opacity="1" d="M0,3.26C0.12,3.41 0.23,3.58 0.31,3.76C1.32,3.53 2.27,3.06 3.1,2.4C3.92,3.07 4.87,3.52 5.88,3.7C5.97,3.51 6.08,3.35 6.21,3.2C5.23,3.06 4.3,2.66 3.5,2.04C4,1.51 4.39,0.87 4.65,0.16L4.11,0C3.9,0.64 3.56,1.22 3.1,1.69C2.65,1.23 2.3,0.67 2.08,0.05L1.63,0.19C1.87,0.88 2.25,1.51 2.73,2.03C1.92,2.66 0.99,3.08 0,3.26Z " /><path id="路径 15" fill-rule="evenodd" style="fill:#231815" transform="translate(0.156627568568652 0)  rotate(0 2.936766910662316 0.8177132757266311)" opacity="1" d="M2.83,1.09L0,1.09L0,1.64L5.87,1.64L5.87,1.09L3.05,1.09L3.36,0.96C3.22,0.62 3.05,0.3 2.85,0L2.38,0.18C2.55,0.47 2.7,0.77 2.83,1.09Z " /><path id="路径 16" fill-rule="evenodd" style="fill:#231815" transform="translate(0.16641679160419187 1.8655190316360795)  rotate(0 1.084972219772463 0.9628485324573254)" opacity="1" d="M1.68,0C1.21,0.61 0.64,1.12 0,1.51C0.14,1.64 0.27,1.78 0.39,1.93C1.06,1.45 1.66,0.87 2.17,0.21L1.68,0Z " /><path id="路径 17" fill-rule="evenodd" style="fill:#231815" transform="translate(3.9026369168357036 1.8513594943940639)  rotate(0 1.0751829967369217 0.978778011854603)" opacity="1" d="M0,0.32C0.64,0.78 1.22,1.33 1.73,1.96L2.15,1.6C1.62,1 1.03,0.46 0.39,0L0,0.32Z " /></g><path id="接字" fill-rule="evenodd" style="fill:#231815" transform="translate(15.290766381515125 2.106105834464049)  rotate(0 3.1814974865508425 3.3912091694636812)" opacity="1" d="M0.9 2L0.9 3.63C0.56 3.75 0.25 3.85 0 3.92L0.13 4.45L0.9 4.18L0.9 6.1C0.9 6.19 0.86 6.22 0.78 6.22C0.59 6.23 0.39 6.23 0.19 6.22C0.26 6.39 0.31 6.56 0.34 6.74C0.61 6.77 0.89 6.74 1.15 6.64C1.3 6.55 1.37 6.4 1.37 6.11L1.37 4L2.05 3.77L1.97 3.27L1.37 3.48L1.37 2L2.06 2L2.06 1.49L1.37 1.49L1.37 0L0.9 0L0.9 1.49L0.09 1.49L0.09 2L0.9 2Z M4.227 3.0912L3.757 2.9912C3.657 3.2312 3.537 3.5012 3.397 3.7712L2.107 3.7712L2.107 4.2512L3.137 4.2512C2.937 4.5912 2.737 4.9212 2.557 5.1712C3.027 5.3212 3.497 5.5112 3.957 5.7212C3.337 6.0412 2.677 6.2312 1.997 6.2812C2.097 6.4212 2.167 6.5812 2.217 6.7512C3.007 6.6712 3.777 6.4012 4.467 5.9612C4.947 6.1912 5.407 6.4612 5.847 6.7812L6.177 6.3612C5.757 6.0612 5.317 5.8112 4.857 5.6012C5.187 5.2212 5.417 4.7512 5.527 4.2512L6.367 4.2512L6.367 3.7712L3.897 3.7712C4.027 3.5412 4.127 3.3112 4.227 3.0912Z M6.26973 2.47746L4.95973 2.47746C5.13973 2.17746 5.33973 1.82746 5.51973 1.46746L5.03973 1.32746C4.87973 1.72746 4.67973 2.10746 4.45973 2.47746L2.17973 2.47746L2.17973 2.96746L6.27973 2.96746L6.26973 2.47746Z M6.0912 0.741859L4.5012 0.741859C4.3912 0.491859 4.2712 0.261859 4.1312 0.031859L3.6512 0.121859C3.7712 0.321859 3.8812 0.531859 3.9812 0.751859L2.4212 0.751859L2.4212 1.24186L6.1012 1.24186L6.0912 0.741859Z M3.81393 2.25038C3.67393 1.92038 3.50393 1.61038 3.29393 1.32038L2.91393 1.49038C3.11393 1.79038 3.27393 2.11038 3.40393 2.46038L3.81393 2.25038Z M3.22718 4.93786C3.59718 5.06786 3.98718 5.21786 4.37718 5.38786C4.67718 5.07786 4.90718 4.68786 5.02718 4.24786L3.63718 4.24786C3.51718 4.48786 3.37718 4.71786 3.22718 4.93786Z " /><g opacity="1" transform="translate(22.609842137754676 2.487109905020353)  rotate(0 2.9057677043831025 3.0814692922945133)"><path id="路径 24" fill-rule="evenodd" style="fill:#231815" transform="translate(0 0)  rotate(0 2.9057677043831025 3.0814692922945133)" opacity="1" d="M0.5,5.64L0.5,0.53L5.64,0.53L5.64,0L0,0L0,6.16L5.81,6.16L5.81,5.64L0.5,5.64Z " /><path id="路径 25" fill-rule="evenodd" style="fill:#231815" transform="translate(0.8777669988535024 0.8849710776262221)  rotate(0 2.0638945233265873 2.1150808755266817)" opacity="1" d="M2.23,1.8C1.68,1.26 1.1,0.72 0.57,0.27L0.22,0.59C0.75,1.07 1.33,1.63 1.89,2.18C1.33,2.81 0.69,3.36 0,3.82C0.15,3.94 0.28,4.08 0.4,4.23C1.08,3.75 1.69,3.19 2.25,2.56C2.77,3.08 3.26,3.64 3.71,4.23L4.13,3.83C3.65,3.24 3.14,2.68 2.6,2.16C3.09,1.55 3.53,0.9 3.91,0.21L3.43,0C3.09,0.64 2.69,1.25 2.23,1.8Z " /></g></g></g></svg>