<svg xmlns="http://www.w3.org/2000/svg" xmlns:xlink="http://www.w3.org/1999/xlink" width="24.6" height="55" viewBox="0 0 24.6 55" fill="none"><defs><rect id="path_0" x="0" y="0" width="24.6" height="55" /></defs><g opacity="1" transform="translate(0 0)  rotate(0 12.3 27.5)"><mask id="bg-mask-0" fill="white"><use xlink:href="#path_0"></use></mask><g mask="url(#bg-mask-0)" ><g opacity="1" transform="translate(0.17390074932843191 0.17525970301447558)  rotate(0 12.12609925067157 27.322987699955394)"><path id="路径 1" fill-rule="evenodd" style="fill:#5EC1CA" transform="translate(0 0)  rotate(0 12.12609925067157 27.322987699955394)" opacity="1" d="M24.25,0L0,0L0,54.65L24.25,54.65L24.25,0Z " /><path  id="路径 1" style="stroke:#231815; stroke-width:0.1; stroke-opacity:1; stroke-dasharray:0 0" transform="translate(0 0)  rotate(0 12.12609925067157 27.322987699955394)" d="M24.25,0L0,0L0,54.65L24.25,54.65L24.25,0Z " /><path id="路径 2"  style="fill:#5EC1CA" transform="translate(0 4.9960036108132044e-15)  rotate(0 12.12609925067157 27.322987699955387)" opacity="1" d="M0,0L24.25,54.65 " /><path  id="路径 2" style="stroke:#231815; stroke-width:0.1; stroke-opacity:1; stroke-dasharray:0 0" transform="translate(0 4.9960036108132044e-15)  rotate(0 12.12609925067157 27.322987699955387)" d="M0,0L24.25,54.65 " /></g><path id="路径 3" fill-rule="evenodd" style="fill:#231815" transform="translate(16.531005231160762 4.521700337773254)  rotate(0 2.587643150007068 4.625103562551779)" opacity="1" d="M0,8.25L0.01,9.25L5.18,9.25L5.18,8.25L3.27,8.25L3.27,0L2.37,0C1.77,0.35 1.1,0.58 0.41,0.67L0.41,1.44L2.09,1.44L2.09,8.25L0,8.25Z " /><g opacity="1" transform="translate(3.620613601017965 33.53769676884839)  rotate(0 3.8432065601583525 3.7312790771779905)"><path id="路径 4" fill-rule="evenodd" style="fill:#231815" transform="translate(0 3.102096743356036)  rotate(0 3.8432065601583525 2.1802307054999726)" opacity="1" d="M7.5,4.16C7.52,3.93 7.58,3.7 7.69,3.49C6.88,3.58 5.63,3.65 4.65,3.65C3.74,3.65 3.02,3.6 2.48,3.25C2.22,3.07 2.02,2.92 1.87,2.82L1.85,0L0.11,0L0.11,0.59L1.26,0.59L1.26,2.78C0.77,3.02 0.35,3.36 0,3.77L0.44,4.36C0.87,3.79 1.27,3.29 1.54,3.29C1.73,3.29 2,3.57 2.34,3.79C2.92,4.16 3.6,4.25 4.64,4.25C5.44,4.25 6.9,4.21 7.5,4.16Z " /><path id="路径 5" fill-rule="evenodd" style="fill:#231815" transform="translate(0.3547575286299951 0.19278567331590324)  rotate(0 0.8695037466421602 0.8798037091326256)" opacity="1" d="M1.74,1.4C1.37,0.89 0.95,0.42 0.48,0L0,0.32C0.47,0.75 0.88,1.23 1.23,1.76L1.74,1.4Z " /><path id="路径 6" fill-rule="evenodd" style="fill:#231815" transform="translate(2.458956595504028 0)  rotate(0 2.4885197228898632 3.1114078490468278)" opacity="1" d="M0,2.07L3.21,2.07L3.21,5.38C3.21,5.52 3.15,5.58 2.98,5.58C2.81,5.58 2.23,5.58 1.63,5.58C1.73,5.78 1.8,5.99 1.85,6.21C2.37,6.25 2.91,6.2 3.42,6.09C3.71,6 3.82,5.81 3.82,5.39L3.82,2.07L4.98,2.07L4.98,1.47L3.82,1.47L3.82,0L3.21,0L3.21,1.47L0,1.47L0,2.07Z " /><path id="路径 7" fill-rule="evenodd" style="fill:#231815" transform="translate(2.8519722889862615 2.7340513670256783)  rotate(0 0.8434186342429192 0.9797017398508705)" opacity="1" d="M0,0.28C0.43,0.81 0.82,1.37 1.16,1.96L1.69,1.64C1.33,1.07 0.93,0.52 0.49,0L0,0.28Z " /></g><path id="分组 3" fill-rule="evenodd" style="fill:#231815" transform="translate(3.669305810829961 43.56605697533618)  rotate(0 3.8066874027993656 3.8048881524440765)" opacity="1" d="M2.45 6.61447C2.17 6.44447 1.99 6.29447 1.82 6.21447L1.81 3.01447L0.07 3.01447L0.07 3.60447L1.22 3.60447L1.22 6.18447C0.76 6.41447 0.34 6.72447 0 7.10447L0.38 7.61447C0.82 7.09447 1.23 6.64447 1.52 6.64447C1.72 6.64447 1.98 6.89447 2.33 7.10447C2.89 7.43447 3.61 7.51447 4.6 7.51447C5.38 7.51447 6.84 7.46447 7.44 7.43447C7.47 7.21447 7.53 7.00447 7.61 6.81447C6.81 6.90447 5.53 6.96447 4.62 6.96447C3.7 6.96447 2.99 6.90447 2.45 6.61447Z M1.87129 1.71052C1.51129 1.22052 1.10129 0.760519 0.651291 0.350519L0.191291 0.670519C0.621291 1.09052 1.02129 1.56052 1.37129 2.07052L1.87129 1.71052Z M6.54593 0.22L5.93593 0.04C5.76593 0.43 5.54593 0.8 5.29593 1.15L3.76593 1.15L4.19593 0.94C4.03593 0.6 3.83593 0.29 3.59593 0L3.07593 0.22C3.30593 0.51 3.48593 0.82 3.63593 1.15L2.22593 1.15L2.22593 1.67L4.41593 1.67C4.36593 1.91 4.30593 2.14 4.22593 2.37L2.82593 2.37L2.82593 6.31L6.79593 6.31L6.79593 2.37L4.80593 2.37C4.90593 2.16 5.00593 1.92 5.10593 1.67L7.49593 1.67L7.49593 1.15L5.93593 1.15C6.13593 0.87 6.34593 0.52 6.54593 0.22Z M3.4015 2.84972L3.4015 3.54972L6.1815 3.54972L6.1815 2.84972L3.4015 2.84972Z M3.4015 3.9784L3.4015 4.6784L6.1815 4.6784L6.1815 3.9784L3.4015 3.9784Z M3.4015 5.12109L3.4015 5.82109L6.1815 5.82109L6.1815 5.12109L3.4015 5.12109Z " /></g></g></svg>