<svg xmlns="http://www.w3.org/2000/svg" viewBox="0 0 71.93 156.41"><defs><style>.cls-1{fill:#5ec1ca;}.cls-1,.cls-3{stroke:#231815;stroke-miterlimit:10;stroke-width:0.5px;}.cls-2{fill:#231815;}.cls-3{fill:none;}</style></defs><title>加宽顶层</title><g id="图层_2" data-name="图层 2"><g id="图层_1-2" data-name="图层 1"><path class="cls-1" d="M71.68,156.16H.25V.25H71.68Zm0,0L.25.25"/><path class="cls-2" d="M48.13,36.18h6V16.75h-4.8V14.57A15.41,15.41,0,0,0,55,12.65h2.59V36.18H63V39H48.13Z"/><line class="cls-3" x1="21.18" y1="78.2" x2="50.75" y2="78.2"/><polygon class="cls-2" points="21.91 80.7 17.59 78.2 21.91 75.71 21.91 80.7"/><polygon class="cls-2" points="50.02 80.7 54.34 78.2 50.02 75.71 50.02 80.7"/><path class="cls-2" d="M12.53,144.23c.4.27.85.6,1.52,1,1.43.87,3.41,1,5.87,1a76.44,76.44,0,0,0,8.09-.47,8.36,8.36,0,0,0-.65,2.28c-1.54.09-5.34.22-7.51.22-2.77,0-4.62-.24-6.23-1.18-1-.56-1.7-1.3-2.19-1.3-.69,0-1.72,1.39-2.7,2.82l-1.47-2a10.14,10.14,0,0,1,3.23-2.52v-5.41H7.66V136.7h4.87ZM11.39,134a20.66,20.66,0,0,0-3.24-3.86l1.61-1.08a22.57,22.57,0,0,1,3.35,3.71Zm11,.29H14v-2h8.4v-3.8H24.5v3.8h2.91v2H24.5v8.13c0,1.3-.31,1.88-1.18,2.19a13.67,13.67,0,0,1-4.36.4,8.54,8.54,0,0,0-.71-2.12c1.52.07,3.1.07,3.55,0s.58-.14.58-.54Zm-5.88,1.41a30.67,30.67,0,0,1,3.15,4.31l-1.74,1.07a34.51,34.51,0,0,0-3.06-4.47Z"/><path class="cls-2" d="M34.88,144.83c.45.22.94.6,1.68,1,1.45.76,3.39.92,5.81.92a76.6,76.6,0,0,0,7.93-.42,6.81,6.81,0,0,0-.58,2c-1.55.11-5.3.24-7.42.24a13.11,13.11,0,0,1-6.12-1.09c-1-.54-1.7-1.16-2.21-1.16-.76,0-1.9,1.22-3,2.54l-1.25-1.72a11,11,0,0,1,3.18-2.32v-6.52H30v-1.93h4.87Zm-1.56-10.74a23.86,23.86,0,0,0-3.15-3.76l1.61-1A22.45,22.45,0,0,1,35,132.92Zm7.71.51c.13-.51.29-1.09.4-1.63H35.82v-1.7h3.42a12.88,12.88,0,0,0-1.32-2.21l1.74-.72a11.77,11.77,0,0,1,1.55,2.42l-1.14.51h3.86a18.61,18.61,0,0,0,1.56-2.79l2,.56c-.51.76-1,1.56-1.51,2.23H49.9V133H43.69c-.25.58-.47,1.14-.72,1.63h5.18v10.54H37.36V134.6Zm5.07,1.52H39.31v1.56H46.1Zm0,2.95H39.31v1.56H46.1Zm0,3H39.31v1.58H46.1Z"/></g></g></svg>