<svg xmlns="http://www.w3.org/2000/svg" viewBox="0 0 70.23 164.91"><defs><style>.cls-1{fill:#5ec1ca;}.cls-1,.cls-3{stroke:#231815;stroke-miterlimit:10;stroke-width:0.5px;}.cls-2{fill:#231815;}.cls-3{fill:none;}</style></defs><title>加长顶层</title><g id="图层_2" data-name="图层 2"><g id="图层_1-2" data-name="图层 1"><path class="cls-1" d="M.25.25,70,164.66m0,0H.25V.25H70Z"/><path class="cls-2" d="M47.28,40.43h6V21H48.5V18.82a15.41,15.41,0,0,0,5.61-1.92H56.7V40.43h5.43v2.81H47.28Z"/><line class="cls-3" x1="35.54" y1="67.67" x2="35.54" y2="97.24"/><polygon class="cls-2" points="33.05 68.4 35.54 64.08 38.03 68.4 33.05 68.4"/><polygon class="cls-2" points="33.05 96.51 35.54 100.83 38.03 96.51 33.05 96.51"/><path class="cls-2" d="M12.25,148.48c.4.27.85.6,1.52,1,1.43.87,3.42,1,5.88,1a76.25,76.25,0,0,0,8.08-.47,8.34,8.34,0,0,0-.64,2.28c-1.55.09-5.34.22-7.51.22-2.77,0-4.62-.24-6.23-1.18-1-.56-1.7-1.3-2.19-1.3-.69,0-1.72,1.39-2.71,2.82l-1.47-2a10.27,10.27,0,0,1,3.24-2.52v-5.4H7.38v-2h4.87Zm-1.14-10.19a20.66,20.66,0,0,0-3.24-3.86l1.61-1.07a21.79,21.79,0,0,1,3.35,3.71Zm11,.29H13.7v-2h8.4v-3.8h2.13v3.8h2.9v2h-2.9v8.14c0,1.29-.32,1.87-1.19,2.18a13.56,13.56,0,0,1-4.35.41,8.64,8.64,0,0,0-.72-2.13c1.52.07,3.11.07,3.55,0s.58-.14.58-.54ZM16.23,140a31.49,31.49,0,0,1,3.15,4.31l-1.74,1.07a35.85,35.85,0,0,0-3.06-4.46Z"/><path class="cls-2" d="M34.61,149.08c.44.23.94.61,1.67,1a13,13,0,0,0,5.81.91,76.29,76.29,0,0,0,7.93-.42,7.46,7.46,0,0,0-.58,2c-1.54.11-5.29.24-7.42.24a13,13,0,0,1-6.12-1.09c-1-.54-1.69-1.16-2.21-1.16-.76,0-1.9,1.23-3,2.54l-1.25-1.72a10.92,10.92,0,0,1,3.17-2.32v-6.52H29.74v-1.92h4.87ZM33,138.34a22.82,22.82,0,0,0-3.15-3.76l1.61-1a22.07,22.07,0,0,1,3.22,3.62Zm7.71.51c.14-.51.29-1.09.4-1.63h-5.6v-1.7H39a13.2,13.2,0,0,0-1.31-2.21l1.74-.71A11.39,11.39,0,0,1,40.93,135l-1.14.51h3.87a20,20,0,0,0,1.56-2.79l2,.56c-.51.76-1,1.56-1.52,2.23h3.91v1.7H43.41c-.25.58-.47,1.14-.71,1.63h5.18V149.4H37.09V138.85Zm5.07,1.52H39v1.56h6.79Zm0,2.95H39v1.56h6.79Zm0,3H39v1.59h6.79Z"/></g></g></svg>