<svg id="图层_1" data-name="升降式交接区" width="48" height="65" viewBox="0 0 137.06 185.25" xmlns="http://www.w3.org/2000/svg"><defs><style>.cls-1{fill:#2d7e39;stroke:#231815;stroke-miterlimit:10;}.cls-2{fill:#fff;stroke:#040000;stroke-linecap:round;stroke-linejoin:round;}.cls-3{fill:#231815;}</style></defs><title>升降机+交接区</title><rect class="cls-1" x="0.5" y="0.5" width="136.06" height="184.25"/><rect class="cls-2" x="38.09" y="28.85" width="60.94" height="127.56"/><rect class="cls-2" x="40.2" y="32.63" width="13.06" height="12.76"/><rect class="cls-2" x="83.78" y="139.4" width="13.06" height="12.76"/><rect class="cls-2" x="526.83" y="369.86" width="0.28" height="4.25" transform="translate(626.15 415.66) rotate(180)"/><rect class="cls-2" x="37.75" y="43.96" width="0.34" height="5.07"/><rect class="cls-2" x="30.54" y="44.86" width="7.21" height="3.28"/><rect class="cls-2" x="527.12" y="370.35" width="7.21" height="3.28" transform="translate(633.64 415.66) rotate(180)"/><rect class="cls-2" x="526.83" y="460.24" width="0.28" height="4.25" transform="translate(626.15 596.41) rotate(180)"/><rect class="cls-2" x="37.75" y="134.34" width="0.34" height="5.07"/><rect class="cls-2" x="30.54" y="135.23" width="7.21" height="3.28"/><rect class="cls-2" x="527.12" y="460.72" width="7.21" height="3.28" transform="translate(633.64 596.41) rotate(180)"/><rect class="cls-2" x="56.63" y="28.85" width="23.91" height="127.51"/><path class="cls-3" d="M453.22,344.65H448.7v9.26h-1.57v-9.26h-6.41c-.16,3.46-1.07,6.86-5.33,9.3a6.22,6.22,0,0,0-1.11-1.18,9,9,0,0,0,4.91-8.12h-4.7v-1.51h4.72v-4.66c-1.34.37-2.68.73-4,1a4.06,4.06,0,0,0-.56-1.26,35.52,35.52,0,0,0,9.09-3.19l1.17,1.28a27.63,27.63,0,0,1-4.17,1.66v5.15h6.38v-8h1.57v8h4.52Z" transform="translate(-427.8 -328.32)"/><path class="cls-3" d="M462.1,336.14c-.69,1.71-1.51,3.74-2.29,5.4a6.27,6.27,0,0,1,2.08,4.56,2.87,2.87,0,0,1-.88,2.43,2.13,2.13,0,0,1-1.13.4,9.4,9.4,0,0,1-1.51,0,3.51,3.51,0,0,0-.42-1.4,5.21,5.21,0,0,0,1.34,0,1.17,1.17,0,0,0,.71-.19c.38-.23.51-.8.49-1.47a5.94,5.94,0,0,0-2.12-4.24c.67-1.47,1.36-3.28,1.84-4.7h-2.79v16.86H456V335.58h4.81l.25-.07Zm10.77.82a11.46,11.46,0,0,1-3.4,4.14,16.68,16.68,0,0,0,5.06,1.78,6.57,6.57,0,0,0-.92,1.29,17.34,17.34,0,0,1-5.36-2.23,20.44,20.44,0,0,1-5.81,2.41,4.59,4.59,0,0,0-.78-1.26,19.18,19.18,0,0,0,5.4-2,13,13,0,0,1-2-2.12,16.46,16.46,0,0,1-2.08,1.7,4.28,4.28,0,0,0-1-1.05,14.06,14.06,0,0,0,4.58-4.85l1.58.27q-.45.75-1,1.53h4.56l.25-.08Zm-3.54,12.35h4.74v1.38h-4.74v3.22h-1.52v-3.22H463v0h-.63c.35-1,.79-2.43,1.09-3.59l1.36.19c-.14.63-.35,1.39-.56,2h3.52v-2.84H463v-1.36h4.83v-1.62h1.52v1.62h4.09v1.36h-4.09Zm-3.22-11.51-.19.19a10.54,10.54,0,0,0,2.31,2.31,10.32,10.32,0,0,0,2.52-2.5Z" transform="translate(-427.8 -328.32)"/><path class="cls-3" d="M489,340.13c.51,7.08,2.17,12.18,4.24,12.18.57,0,.82-1.15.95-3.95a4.29,4.29,0,0,0,1.38.87c-.27,3.63-.86,4.7-2.45,4.7-3.42,0-5.17-6-5.71-13.8H476.57v-1.51H487.3c-.06-1.24-.08-2.52-.1-3.8h1.63c0,1.3,0,2.56.09,3.8h6.21v1.51Zm-6.42,10.4c1.47-.32,3-.61,4.49-.95l.13,1.37c-3.55.86-7.39,1.74-10.06,2.33l-.48-1.54,4.38-.88v-6.09h-3.73v-1.51h9.19v1.51h-3.92Zm10.6-12.16a18.15,18.15,0,0,0-3-2.62l1.05-.87a18.75,18.75,0,0,1,3,2.5Z" transform="translate(-427.8 -328.32)"/><path class="cls-3" d="M511.58,343.77a15,15,0,0,1-3.51,5.31,18.08,18.08,0,0,0,8.29,3.27,6.27,6.27,0,0,0-1,1.41,19,19,0,0,1-8.51-3.67,22.55,22.55,0,0,1-8.56,3.86,6.59,6.59,0,0,0-.95-1.41,20.27,20.27,0,0,0,8.38-3.48,15.15,15.15,0,0,1-3.4-5.19l1.39-.42a12.85,12.85,0,0,0,3.14,4.64,12.14,12.14,0,0,0,3.09-4.76Zm4.24-4.62h-18v-1.54h8.72a21.45,21.45,0,0,0-1.39-2.58l1.45-.5a16.15,16.15,0,0,1,1.55,2.71l-.94.37h8.63Zm-11.28,1.24a24.41,24.41,0,0,1-5.46,4.85,12.05,12.05,0,0,0-1.19-1.18,19,19,0,0,0,5.16-4.26Zm6-.63a31,31,0,0,1,5.39,4.53l-1.28,1a28.59,28.59,0,0,0-5.31-4.64Z" transform="translate(-427.8 -328.32)"/><path class="cls-3" d="M522.21,346.1V352c0,.84-.21,1.26-.7,1.51a5.53,5.53,0,0,1-2.48.29,5.11,5.11,0,0,0-.44-1.47,17.1,17.1,0,0,0,1.81,0c.25,0,.36-.09.36-.36v-5.48l-2.36.75-.39-1.49c.75-.21,1.72-.5,2.75-.82v-4.61h-2.48v-1.45h2.48v-4.2h1.45v4.2h2.09v1.45h-2.09v4.17l1.84-.58.23,1.42Zm12.74.69a8.42,8.42,0,0,1-2.08,3.82,25.36,25.36,0,0,1,4,2.14l-1,1.2a27.41,27.41,0,0,0-4.24-2.33,16.73,16.73,0,0,1-6.88,2.25,4.63,4.63,0,0,0-.68-1.35,16,16,0,0,0,6-1.57,44,44,0,0,0-4.29-1.56c.55-.71,1.18-1.63,1.79-2.6h-3.15v-1.34h4c.42-.76.79-1.52,1.09-2.21l1.43.3c-.28.6-.61,1.25-1,1.91h7.56v1.34Zm2.29-3.63H524.68v-1.37h7a24.4,24.4,0,0,0,1.76-3.25l1.47.4c-.57,1-1.16,2-1.72,2.85h4Zm-.53-4.87H525.42v-1.37h4.78a15.86,15.86,0,0,0-1-1.78l1.45-.26a14.87,14.87,0,0,1,1.15,2h4.87Zm-8.27,3.44a13,13,0,0,0-1.51-2.73l1.17-.48a12.92,12.92,0,0,1,1.58,2.62Zm.71,5.06a18.77,18.77,0,0,1-1.26,1.95c1.14.36,2.34.78,3.51,1.26a7,7,0,0,0,2-3.21Z" transform="translate(-427.8 -328.32)"/><path class="cls-3" d="M558.24,351.79v1.49H540.43V335.87h17.28v1.49H542v14.43Zm-3.74-1.47a52.21,52.21,0,0,0-4.49-4.73,32.84,32.84,0,0,1-5.65,4.73,8.62,8.62,0,0,0-1.24-1.16,29.22,29.22,0,0,0,5.8-4.62c-1.71-1.57-3.49-3.15-5.13-4.49l1.09-.92c1.6,1.28,3.39,2.81,5.07,4.32a29.72,29.72,0,0,0,3.69-5.08l1.45.59a36.11,36.11,0,0,1-4,5.5,53.62,53.62,0,0,1,4.68,4.74Z" transform="translate(-427.8 -328.32)"/></svg>